<svg width="20" height="20" viewBox="0 0 20 20" fill="none" xmlns="http://www.w3.org/2000/svg">
<path fill-rule="evenodd" clip-rule="evenodd" d="M10 15.4545C13.0125 15.4545 15.4545 13.0125 15.4545 10C15.4545 6.98754 13.0125 4.54545 10 4.54545C6.98754 4.54545 4.54545 6.98754 4.54545 10C4.54545 13.0125 6.98754 15.4545 10 15.4545ZM10 13.6364C12.0083 13.6364 13.6364 12.0083 13.6364 10C13.6364 7.99169 12.0083 6.36364 10 6.36364C7.99169 6.36364 6.36364 7.99169 6.36364 10C6.36364 12.0083 7.99169 13.6364 10 13.6364Z" fill="white"/>
<path d="M15.4545 3.63636C14.9525 3.63636 14.5455 4.04338 14.5455 4.54545C14.5455 5.04753 14.9525 5.45455 15.4545 5.45455C15.9566 5.45455 16.3636 5.04753 16.3636 4.54545C16.3636 4.04338 15.9566 3.63636 15.4545 3.63636Z" fill="white"/>
<path fill-rule="evenodd" clip-rule="evenodd" d="M0.594509 2.97824C0 4.14503 0 5.67245 0 8.72727V11.2727C0 14.3275 0 15.855 0.594509 17.0217C1.11745 18.0481 1.95189 18.8825 2.97824 19.4055C4.14503 20 5.67245 20 8.72727 20H11.2727C14.3275 20 15.855 20 17.0217 19.4055C18.0481 18.8825 18.8825 18.0481 19.4055 17.0217C20 15.855 20 14.3275 20 11.2727V8.72727C20 5.67245 20 4.14503 19.4055 2.97824C18.8825 1.95189 18.0481 1.11745 17.0217 0.594509C15.855 0 14.3275 0 11.2727 0H8.72727C5.67245 0 4.14503 0 2.97824 0.594509C1.95189 1.11745 1.11745 1.95189 0.594509 2.97824ZM11.2727 1.81818H8.72727C7.16985 1.81818 6.11114 1.8196 5.2928 1.88645C4.49567 1.95158 4.08804 2.06963 3.80367 2.21452C3.11945 2.56315 2.56315 3.11945 2.21452 3.80367C2.06963 4.08804 1.95158 4.49567 1.88645 5.2928C1.8196 6.11114 1.81818 7.16985 1.81818 8.72727V11.2727C1.81818 12.8302 1.8196 13.8888 1.88645 14.7072C1.95158 15.5044 2.06963 15.912 2.21452 16.1964C2.56315 16.8805 3.11945 17.4368 3.80367 17.7855C4.08804 17.9304 4.49567 18.0485 5.2928 18.1135C6.11114 18.1804 7.16985 18.1818 8.72727 18.1818H11.2727C12.8302 18.1818 13.8888 18.1804 14.7072 18.1135C15.5044 18.0485 15.912 17.9304 16.1964 17.7855C16.8805 17.4368 17.4368 16.8805 17.7855 16.1964C17.9304 15.912 18.0485 15.5044 18.1135 14.7072C18.1804 13.8888 18.1818 12.8302 18.1818 11.2727V8.72727C18.1818 7.16985 18.1804 6.11114 18.1135 5.2928C18.0485 4.49567 17.9304 4.08804 17.7855 3.80367C17.4368 3.11945 16.8805 2.56315 16.1964 2.21452C15.912 2.06963 15.5044 1.95158 14.7072 1.88645C13.8888 1.8196 12.8302 1.81818 11.2727 1.81818Z" fill="white"/>
</svg>
