<svg width="415" height="584" viewBox="0 0 415 584" fill="none" xmlns="http://www.w3.org/2000/svg">
<path d="M12.1907 429.347H21.4469C44.8196 429.347 68.1924 429.347 91.5652 429.347C99.2369 429.347 106.718 429.156 114.199 426.393C119.882 424.3 126.541 425.305 132.068 421.753C135.005 420.083 138.032 418.578 141.134 417.244C150.045 412.855 154.417 406.636 154.119 395.717C153.333 365.698 153.404 335.62 154.119 305.59C154.345 295.962 150.152 290.233 142.873 286.311C134.213 281.634 125.23 277.257 114.831 277.867C112.556 277.789 110.294 277.492 108.076 276.982C101.631 276.097 95.1985 274.59 88.718 274.435C71.6352 273.992 54.5166 274.519 37.4933 273.813C30.2384 273.502 23.0074 271.289 15.8836 269.472C13.5964 268.886 11.6903 266.805 8.92659 264.963C10.8565 262.571 12.2383 260.49 13.9538 258.756C26.617 246.019 39.3755 233.378 52.0745 220.629C56.6847 215.976 61.3068 211.288 65.5835 206.277C67.5502 203.845 70.0666 201.918 72.9237 200.658C75.7808 199.397 78.8961 198.839 82.0111 199.03C101.667 199.401 121.323 199.173 141.003 199.173C143.278 199.173 145.566 199.173 147.841 199.054C151.57 198.922 153.797 196.973 153.797 193.217C153.916 185.779 153.797 178.34 153.797 170.901C153.797 166.117 150.617 165.459 146.84 165.459C137.429 165.459 128.03 165.459 118.619 165.459H108.16C116.975 153.009 127.792 145.128 136.643 135.429C145.494 125.73 153.976 114.906 167.33 108.831C168.12 110.632 168.746 112.501 169.2 114.416C169.399 116.699 169.443 118.992 169.331 121.281C169.395 271.222 169.451 421.163 169.498 571.104C169.498 573.687 169.641 576.27 169.391 578.83C168.926 583.613 165.662 585.455 161.803 582.74C158.365 580.192 155.157 577.346 152.213 574.237C108.39 530.122 64.5828 485.972 20.7917 441.785C17.4799 438.436 14.2873 434.992 11.0351 431.583C11.4164 430.83 11.7976 430.065 12.1907 429.347Z" fill="white" fill-opacity="0.1"/>
<path d="M231.718 430.077C218.757 443.352 205.788 456.611 192.811 469.854C191.616 471.087 190.223 472.11 188.69 472.88C186.76 473.825 184.27 475.367 182.733 474.793C181.411 474.303 180.815 471.206 180.351 469.184C180.138 467.478 180.11 465.754 180.267 464.042C180.267 313.543 180.24 163.043 180.184 12.5443V1.48175C184.365 -1.1972 186.676 0.178153 188.904 2.28304C195.111 8.16714 201.52 13.8479 207.547 19.9114C251.815 64.4409 296.043 109.014 340.231 153.631C342.364 155.772 344.27 158.128 347.093 161.297C344.055 162.266 342.328 163.163 340.565 163.295C337.158 163.534 333.727 163.223 330.308 163.295C307.269 164.096 284.146 164.06 261.214 166.189C250.564 167.181 239.902 171.092 230.241 176.713C218.459 183.53 208.512 191.962 201.448 203.897C198.454 209.091 196.976 215.026 197.183 221.023C197.183 259.924 197.183 298.836 197.183 337.761C197.183 362.932 197.223 388.11 197.302 413.297C197.302 414.72 197.302 416.156 197.302 417.591C197.481 428.689 197.922 429 208.965 429.204C216.613 429.347 224.261 429.873 231.897 430.232L231.718 430.077Z" fill="white" fill-opacity="0.1"/>
<path d="M-26.8473 298.653C-21.4389 301.272 -17.2218 303.628 -12.7784 305.386C0.586536 310.876 14.9315 313.555 29.3688 313.256C48.4292 312.729 67.6087 312.359 86.6571 313.435C98.9153 314.129 111.328 316.329 120.013 327.392C126.338 335.453 127.16 344.685 127.16 354.086C127.16 362.266 127.256 370.614 121.943 377.873C114.557 387.967 104.586 393.755 92.4824 393.923C54.8621 394.425 17.2298 394.09 -20.4025 394.306C-22.5214 394.378 -24.6308 393.988 -26.5848 393.162C-28.5388 392.336 -30.2908 391.094 -31.7196 389.522C-39.6773 381.341 -47.4206 372.898 -55.7595 365.136C-64.6583 356.86 -65.2897 339.471 -58.011 331.326C-47.9686 320.085 -37.2352 309.488 -26.8473 298.653Z" fill="white" fill-opacity="0.1"/>
<path d="M308.71 277.987C286.195 277.987 263.68 277.987 241.153 277.987C231.933 277.987 231.528 277.52 231.528 268.216C231.528 254.714 232.993 241.414 237.853 228.749C242.249 217.292 249.992 209.04 261.679 204.83C274.399 200.113 287.814 197.559 301.372 197.272C325.876 196.865 350.405 197.272 374.909 197.021C380.711 197.021 385.333 198.276 389.324 202.713C393.898 207.808 398.925 212.496 403.917 217.196C408.908 221.896 411.732 227.673 414.102 233.76C416.866 240.936 412.708 247.059 408.956 251.867C402.13 260.586 394.017 268.359 385.869 275.906C383.772 277.855 379.531 278.059 376.267 278.082C353.74 278.262 331.225 278.178 308.71 278.178V277.987Z" fill="white" fill-opacity="0.1"/>
<path d="M231.885 430.28C231.619 428.596 231.44 426.9 231.349 425.197C231.397 391.152 231.468 357.103 231.563 323.05C231.563 313.543 231.897 313.172 241.022 313.148C273.504 313.076 305.99 313.076 338.48 313.148C340.863 313.148 343.329 313.614 347.319 314.021C344.699 317.071 343.233 319.02 341.53 320.73C307.682 354.719 273.814 388.685 239.926 422.626C237.317 425.245 234.434 427.589 231.706 430.077L231.885 430.28Z" fill="#EEEEEE" fill-opacity="0.1"/>
</svg>
