<svg width="16" height="19" viewBox="0 0 16 19" fill="none" xmlns="http://www.w3.org/2000/svg">
<path d="M2.51684 13.9685H2.82667C3.60903 13.9685 4.39138 13.9685 5.17373 13.9685C5.43053 13.9685 5.68094 13.9623 5.93136 13.8724C6.12156 13.8043 6.34447 13.837 6.52949 13.7214C6.62779 13.6671 6.72909 13.6181 6.83294 13.5747C7.1312 13.4319 7.27754 13.2296 7.26758 12.8743C7.24126 11.8977 7.24365 10.9191 7.26758 9.94212C7.27515 9.6289 7.13479 9.44252 6.89115 9.3149C6.60126 9.16277 6.3006 9.02036 5.95249 9.0402C5.87636 9.03765 5.80065 9.02801 5.7264 9.01141C5.51067 8.98261 5.29535 8.93359 5.07843 8.92853C4.50662 8.91413 3.93361 8.93125 3.36379 8.9083C3.12095 8.89818 2.87891 8.8262 2.64046 8.76706C2.5639 8.74799 2.5001 8.68029 2.40758 8.62037C2.47218 8.54255 2.51844 8.47484 2.57586 8.41843C2.99973 8.00404 3.4268 7.59277 3.85187 7.17799C4.00618 7.02663 4.1609 6.87411 4.30405 6.71108C4.36988 6.63193 4.45411 6.56926 4.54975 6.52825C4.64538 6.48724 4.74966 6.46908 4.85393 6.47528C5.51187 6.48735 6.16981 6.47995 6.82855 6.47995C6.90471 6.47995 6.98127 6.47995 7.05743 6.47606C7.18224 6.47178 7.25681 6.40836 7.25681 6.28618C7.2608 6.04417 7.25681 5.80215 7.25681 5.56013C7.25681 5.40449 7.15034 5.38309 7.02394 5.38309C6.70892 5.38309 6.39431 5.38309 6.07929 5.38309H5.72919C6.02427 4.97805 6.38633 4.72163 6.68261 4.40608C6.97888 4.09052 7.26279 3.73839 7.70979 3.54073C7.73624 3.59933 7.75719 3.66015 7.7724 3.72243C7.77906 3.7967 7.78052 3.87132 7.77678 3.94578C7.77891 8.82399 7.78077 13.7022 7.78237 18.5804C7.78237 18.6645 7.78715 18.7485 7.77878 18.8318C7.76323 18.9874 7.65397 19.0473 7.52477 18.959C7.40972 18.8761 7.30232 18.7835 7.20378 18.6824C5.7369 17.2471 4.27055 15.8107 2.80474 14.3731C2.69389 14.2642 2.58702 14.1521 2.47816 14.0412C2.49092 14.0167 2.50368 13.9918 2.51684 13.9685Z" fill="white"/>
<path d="M9.86505 13.9922C9.43121 14.4241 8.9971 14.8555 8.56272 15.2863C8.52271 15.3265 8.47607 15.3597 8.42476 15.3848C8.36016 15.4155 8.27682 15.4657 8.22538 15.447C8.18112 15.4311 8.16118 15.3303 8.14563 15.2646C8.1385 15.2091 8.13756 15.153 8.14284 15.0972C8.14284 10.2009 8.14191 5.3045 8.14005 0.408121V0.0482075C8.28001 -0.0389499 8.35737 0.00579608 8.43193 0.0742769C8.63968 0.265712 8.85421 0.450532 9.05598 0.647803C10.5377 2.09653 12.0182 3.54669 13.4973 4.99828C13.5687 5.06793 13.6325 5.14458 13.727 5.24769C13.6253 5.2792 13.5675 5.30839 13.5084 5.31267C13.3944 5.32045 13.2796 5.31033 13.1651 5.31267C12.3939 5.33874 11.62 5.33757 10.8524 5.40683C10.4959 5.43912 10.139 5.56636 9.8156 5.74923C9.42124 5.97102 9.08828 6.24533 8.85182 6.63365C8.7516 6.80263 8.70213 6.99571 8.70907 7.19083C8.70907 8.45643 8.70907 9.72241 8.70907 10.9888C8.70907 11.8077 8.71039 12.6269 8.71305 13.4463C8.71305 13.4926 8.71305 13.5393 8.71305 13.586C8.71903 13.9471 8.73379 13.9572 9.10343 13.9638C9.35943 13.9685 9.61543 13.9856 9.87103 13.9973L9.86505 13.9922Z" fill="white"/>
<path d="M1.21013 9.71645C1.39117 9.80166 1.53232 9.87831 1.68106 9.93551C2.12842 10.1141 2.60858 10.2013 3.09184 10.1915C3.72985 10.1744 4.37184 10.1624 5.00944 10.1974C5.41976 10.2199 5.83526 10.2915 6.12595 10.6514C6.33769 10.9137 6.3652 11.2141 6.3652 11.5199C6.3652 11.786 6.36839 12.0576 6.19055 12.2938C5.94332 12.6222 5.60957 12.8105 5.20443 12.816C3.94517 12.8323 2.68551 12.8214 1.42586 12.8284C1.35493 12.8308 1.28432 12.8181 1.21892 12.7912C1.15351 12.7644 1.09487 12.724 1.04704 12.6728C0.780675 12.4067 0.521486 12.132 0.24236 11.8794C-0.055508 11.6102 -0.0766419 11.0444 0.166996 10.7795C0.503144 10.4137 0.86242 10.069 1.21013 9.71645Z" fill="white"/>
<path d="M12.4422 9.04409C11.6885 9.04409 10.9349 9.04409 10.1809 9.04409C9.87223 9.04409 9.85867 9.02892 9.85867 8.7262C9.85867 8.28691 9.90772 7.85424 10.0704 7.44219C10.2175 7.06943 10.4767 6.80096 10.8679 6.664C11.2937 6.51053 11.7427 6.42742 12.1966 6.41809C13.0168 6.40486 13.8378 6.41809 14.6581 6.40992C14.8522 6.40992 15.007 6.45077 15.1405 6.59513C15.2937 6.76088 15.4619 6.91341 15.629 7.06632C15.7961 7.21923 15.8906 7.40717 15.9699 7.60522C16.0625 7.83867 15.9233 8.03789 15.7977 8.19431C15.5692 8.47796 15.2976 8.73087 15.0249 8.97639C14.9547 9.03981 14.8128 9.04643 14.7035 9.0472C13.9495 9.05304 13.1958 9.05032 12.4422 9.05032V9.04409Z" fill="white"/>
<path d="M9.87063 13.9988C9.86172 13.944 9.85573 13.8889 9.85269 13.8335C9.85428 12.7258 9.85668 11.6181 9.85987 10.5102C9.85987 10.2009 9.87103 10.1888 10.1765 10.188C11.2637 10.1857 12.3511 10.1857 13.4387 10.188C13.5184 10.188 13.601 10.2032 13.7345 10.2164C13.6468 10.3157 13.5978 10.3791 13.5407 10.4347C12.4078 11.5405 11.2741 12.6456 10.1398 13.7498C10.0525 13.835 9.95596 13.9113 9.86465 13.9922L9.87063 13.9988Z" fill="#EEEEEE"/>
</svg>
