<svg width="140" height="58" viewBox="0 0 140 58" fill="none" xmlns="http://www.w3.org/2000/svg">
<path d="M51.5427 19.1728C53.6377 20.806 55.95 21.6493 58.0985 21.6493C60.8998 21.6493 62.6684 20.3154 62.6684 18.5741C62.6684 17.2403 61.5253 16.1511 59.2403 15.9611C56.7382 15.7698 54.7523 15.7437 53.2021 15.0358C51.8418 14.3825 51.1082 13.3207 51.1082 12.0141C51.1082 9.75736 53.3113 7.95909 56.7928 7.95909C59.2677 7.95909 61.6891 8.8024 63.8103 10.3536L62.7503 11.8775C60.9271 10.4083 58.9139 9.67303 56.8153 9.67303C54.5031 9.67303 53.0074 10.7076 53.0074 11.9298C53.0074 12.475 53.252 12.88 53.7196 13.2363C54.9707 14.1865 57.0646 13.9716 59.7579 14.2709C62.831 14.6272 64.5996 16.3946 64.5996 18.6264C64.5996 21.1575 62.2601 23.3347 58.1258 23.3347C55.2425 23.3347 52.7677 22.5187 50.4827 20.7489L51.5427 19.1728Z" fill="#710101"/>
<path d="M71.4261 11.6055H72.5418L78.3581 22.9558H76.4589L74.9894 20.0731H69.0058L67.5434 22.9558H65.6596L71.4261 11.6055ZM74.2012 18.5741L71.9982 14.2186L69.7678 18.5741H74.2012Z" fill="#710101"/>
<path d="M80.0496 11.6055H81.5179L86.1697 18.2475L90.8204 11.6055H92.2899V22.9558H90.5213V14.7899L86.1697 21.1053L81.817 14.7899V22.9558H80.0496V11.6055Z" fill="#710101"/>
<path d="M97.9744 22.9558H96.2058V11.6055H104.448C106.788 11.6055 108.147 12.7767 108.147 14.7638C108.147 16.5597 106.841 18.0028 104.638 18.0028H97.9744V22.9558ZM104.448 16.3423C105.672 16.3423 106.325 15.7698 106.325 14.7899C106.325 13.8397 105.699 13.266 104.53 13.266H97.9744V16.3423H104.448Z" fill="#710101"/>
<path d="M112.717 11.6055H113.836L119.653 22.9558H117.753L116.28 20.0731H110.297L108.827 22.9558H106.952L112.717 11.6055ZM115.498 18.5741L113.295 14.2186L111.059 18.5741H115.498Z" fill="#710101"/>
<path d="M121.367 11.5782H123.162V22.9807H121.367V11.5782Z" fill="#710101"/>
<path d="M126.1 17.2949C126.1 13.9193 128.874 11.3062 133.036 11.3062C137.225 11.3062 140 13.892 140 17.2949C140 20.6694 137.225 23.3098 133.036 23.3098C128.874 23.3098 126.1 20.642 126.1 17.2949ZM138.177 17.2949C138.177 14.8719 136.159 12.9394 133.036 12.9394C129.935 12.9394 127.922 14.8398 127.922 17.2949C127.922 19.75 129.94 21.6493 133.036 21.6493C136.191 21.6493 138.177 19.7168 138.177 17.2949Z" fill="#710101"/>
<path d="M55.0158 30.6442C54.9083 30.5542 54.7884 30.4802 54.6597 30.4245C54.5696 30.3734 54.4735 30.3335 54.3737 30.3057L54.3191 30.3413C54.3191 30.3413 54.2597 30.3793 54.1493 30.4447C54.0061 30.5294 53.8237 30.6414 53.6021 30.7808C53.4095 30.8942 53.2027 30.9816 52.9873 31.0409C52.7864 31.1127 52.5768 31.1566 52.3641 31.1716C51.6653 31.1716 51.1348 31.0001 50.7723 30.6573C50.4099 30.3144 50.2291 29.9474 50.2299 29.5562C50.2299 29.2925 50.3426 28.9505 50.5658 28.5288C50.7889 28.1071 51.2258 27.7045 51.8715 27.322C51.8998 27.3063 51.9236 27.2837 51.9408 27.2563C51.958 27.2289 51.9681 27.1976 51.97 27.1652C51.97 27.0595 51.9534 26.8303 51.9201 26.474C51.8806 26.0883 51.8612 25.8595 51.862 25.7874C51.862 25.2553 51.9747 24.8388 52.2003 24.5379C52.4258 24.237 52.757 24.0866 53.1938 24.0866C53.3362 24.0843 53.477 24.1175 53.6034 24.1832C53.7298 24.2489 53.8379 24.3451 53.9179 24.4631C54.1041 24.7213 54.2012 25.0332 54.1944 25.3515C54.1938 25.5629 54.1485 25.7718 54.0615 25.9644C53.9774 26.158 53.8606 26.3356 53.7161 26.4894C53.5748 26.6403 53.2876 26.9063 52.8579 27.2864C52.8092 27.3303 52.7855 27.3672 52.7855 27.3933C52.7855 27.6095 52.9619 27.9571 53.3149 28.4362C53.6166 28.8679 53.9972 29.2386 54.4366 29.5289C54.5529 29.5289 54.6736 29.399 54.7986 29.1393L54.9114 28.9196C55.0016 28.7485 55.1322 28.4445 55.3055 28.0038C54.7563 27.9618 54.4322 27.9155 54.3333 27.8648C54.2348 27.8138 54.1849 27.6784 54.1849 27.4562C54.1849 27.379 54.2467 27.3137 54.3713 27.2615C54.4704 27.215 54.5777 27.1884 54.687 27.1831C54.7512 27.1825 54.8151 27.1929 54.8758 27.2139C55.1088 27.3134 55.3575 27.3713 55.6105 27.385C55.7688 27.385 56.0588 27.3592 56.4806 27.3078C56.902 27.2603 57.1643 27.2365 57.2652 27.2365C57.5168 27.2365 57.6427 27.3006 57.6427 27.4289C57.6427 27.5477 57.5691 27.6332 57.4219 27.6986C57.2747 27.7639 56.9174 27.847 56.3465 27.9456C56.2528 27.9594 56.1666 28.0046 56.1019 28.0739C55.9694 28.2576 55.8602 28.4571 55.7767 28.6678C55.6914 28.8613 55.5926 29.0487 55.4811 29.2284C55.235 29.576 55.1124 29.7661 55.1132 29.7985C55.1132 29.8734 55.2319 29.9577 55.4633 30.0527C55.6925 30.146 55.9376 30.194 56.185 30.194C56.3232 30.183 56.4607 30.1648 56.5969 30.1394C56.8213 30.1073 56.953 30.0907 57.0052 30.0907C57.2509 30.0907 57.3732 30.1762 57.3732 30.3461C57.3732 30.409 57.2616 30.5147 57.0385 30.6644C56.805 30.8174 56.5305 30.8957 56.2515 30.8889C55.7292 30.8841 55.3173 30.8026 55.0158 30.6442ZM53.7956 29.9755C53.6528 29.798 53.4939 29.6342 53.3208 29.4861C53.1705 29.3567 53.0282 29.2183 52.8947 29.0716C52.8215 28.9702 52.7542 28.8647 52.6929 28.7557C52.3645 28.2204 52.1805 27.9317 52.1409 27.8898C51.8215 28.0508 51.5532 28.2976 51.3658 28.6024C51.1747 28.8676 51.0639 29.1822 51.0465 29.5087C51.0465 29.7724 51.1858 29.9961 51.4643 30.1798C51.7173 30.3555 52.017 30.4515 52.3249 30.4554C52.6209 30.4609 53.1111 30.3021 53.7956 29.9791V29.9755ZM52.6086 26.7685C53.2092 26.2879 53.5095 25.7823 53.5095 25.2518C53.5052 25.1836 53.4874 25.1169 53.457 25.0557C53.4267 24.9946 53.3844 24.94 53.3327 24.8954C53.2535 24.7959 53.1384 24.7314 53.0122 24.7161C52.8745 24.7161 52.7582 24.8004 52.662 24.9714C52.5537 25.2041 52.5043 25.4599 52.5184 25.7162C52.5172 26.3968 52.5481 26.7472 52.6074 26.7709L52.6086 26.7685Z" fill="#710101"/>
<path d="M58.7905 24.8669H70.8563V26.6331H60.6968V31.1324H66.8442V32.901H60.6968V40.22H58.7905V24.8669Z" fill="#710101"/>
<path d="M71.8237 40.2164H69.9743V28.3696H78.1409C80.56 28.3696 82.0117 29.5942 82.0117 31.6728C82.0117 33.325 80.8734 34.7194 79.081 34.9986L82.3808 40.2164H80.3629L77.0026 35.0389H71.8237V40.2164ZM78.1409 33.2965C79.4217 33.2965 80.1054 32.7264 80.1054 31.6728C80.1054 30.6478 79.4217 30.0788 78.1409 30.0788H71.8237V33.2965H78.1409Z" fill="#710101"/>
<path d="M85.3685 28.3411H96.4966V30.0788H87.219V33.0399H93.3083V34.7479H87.219V38.5072H97.0082V40.2164H85.3685V28.3411Z" fill="#710101"/>
<path d="M99.6825 28.3126H101.562V40.2449H99.6825V28.3126Z" fill="#710101"/>
<path d="M108.476 29.9933H103.468V28.3411H115.338V29.9933H110.326V40.2164H108.476V29.9933Z" fill="#710101"/>
<path d="M119.89 28.3411H121.057L127.147 40.2188H125.155L123.618 37.1995H117.356L115.819 40.2164H113.855L119.89 28.3411ZM122.791 35.6328L120.483 31.0754L118.152 35.6328H122.791Z" fill="#710101"/>
<path d="M128.792 37.1401C130.499 38.2792 132.548 38.8778 134.228 38.8778C136.447 38.8778 137.757 37.8527 137.757 36.5712C137.757 35.1755 136.533 34.5781 134.057 34.5211C130.414 34.4641 128.394 33.9509 128.394 31.4163C128.396 29.4564 130.217 28.0311 133.291 28.0311C135.34 28.0311 137.246 28.6013 139.04 29.7403L138.101 31.2785C136.558 30.2522 134.771 29.7118 133.263 29.7118C131.384 29.7118 130.274 30.4518 130.274 31.4198C130.274 32.5589 131.498 32.8725 133.974 32.8725C137.787 32.8725 139.694 34.179 139.694 36.6887C139.694 38.7958 137.73 40.5894 134.429 40.5894C132.116 40.5824 129.85 39.9319 127.884 38.7103L128.792 37.1401Z" fill="#710101"/>
<path d="M59.6463 43.617H60.0024L61.8458 47.2195H61.2416L60.7775 46.3037H58.8783L58.4118 47.2195H57.8183L59.6463 43.617ZM60.5271 45.8286L59.8279 44.446L59.1157 45.8286H60.5271Z" fill="#710101"/>
<path d="M65.9493 45.4319C65.9493 46.4676 65.2371 47.2195 63.9895 47.2195H62.3918V43.617H63.9895C65.2062 43.617 65.9493 44.395 65.9493 45.4319ZM62.9533 44.1348V46.7016H63.9978C64.8964 46.7016 65.3712 46.1659 65.3712 45.4224C65.3712 44.6788 64.8442 44.1348 63.9978 44.1348H62.9533Z" fill="#710101"/>
<path d="M67.9517 47.2195L66.1475 43.617H66.741L68.0965 46.312L69.426 43.617H70.0479L68.2437 47.2195H67.9517Z" fill="#710101"/>
<path d="M70.4385 45.4224C70.4385 44.3534 71.3192 43.522 72.6404 43.522C73.9615 43.522 74.8505 44.3427 74.8505 45.4224C74.8505 46.5021 73.9698 47.3323 72.6404 47.3323C71.3109 47.3323 70.4385 46.4854 70.4385 45.4224ZM74.2725 45.4224C74.2725 44.6539 73.6327 44.0398 72.6404 44.0398C71.648 44.0398 71.0165 44.6456 71.0165 45.4224C71.0165 46.1992 71.6563 46.8049 72.6404 46.8049C73.6244 46.8049 74.2725 46.1921 74.2725 45.4224Z" fill="#710101"/>
<path d="M78.2085 45.3012H79.6935V46.3904C79.2792 47.0033 78.6062 47.3323 77.7171 47.3323C76.3521 47.3323 75.4547 46.5009 75.4547 45.4319C75.4547 44.3629 76.3616 43.522 77.7171 43.522C78.548 43.522 79.2021 43.8153 79.6246 44.3688L79.1938 44.68C78.8911 44.2821 78.3474 44.0398 77.7171 44.0398C76.6975 44.0398 76.0328 44.6539 76.0328 45.4224C76.0328 46.1909 76.6892 46.8049 77.7171 46.8049C78.364 46.8049 78.9255 46.5377 79.1237 46.2111V45.8227H78.2085V45.3012Z" fill="#710101"/>
<path d="M81.8609 43.617H82.217L84.0652 47.2195H83.461L82.9945 46.3037H81.0953L80.6288 47.2195H80.0353L81.8609 43.617ZM82.7369 45.8286L82.0378 44.446L81.3256 45.8286H82.7369Z" fill="#710101"/>
<path d="M88.1639 45.4319C88.1639 46.4676 87.4517 47.2195 86.203 47.2195H84.6065V43.617H86.203C87.4208 43.617 88.1639 44.395 88.1639 45.4319ZM85.1679 44.1348V46.7016H86.2125C87.1098 46.7016 87.5846 46.1659 87.5846 45.4224C87.5846 44.6788 87.0588 44.1348 86.2125 44.1348H85.1679Z" fill="#710101"/>
<path d="M90.1925 43.617H90.5486L92.3967 47.2195H91.7925L91.326 46.3037H89.4268L88.9615 47.2195H88.368L90.1925 43.617ZM91.0732 45.8286L90.3741 44.446L89.6619 45.8286H91.0732Z" fill="#710101"/>
<path d="M92.8941 46.2871C93.3833 46.615 93.9554 46.7974 94.544 46.8133C95.217 46.8133 95.6123 46.5021 95.6123 46.1137C95.6123 45.6908 95.2408 45.5091 94.4894 45.4913C93.3843 45.4746 92.7718 45.319 92.7718 44.5506C92.7718 43.9567 93.3238 43.522 94.2567 43.522C94.8759 43.5216 95.4818 43.7015 96.0004 44.0398L95.7156 44.5066C95.2814 44.2115 94.7719 44.0466 94.2472 44.0315C93.6775 44.0315 93.3416 44.256 93.3416 44.5506C93.3416 44.8962 93.7119 44.9912 94.4633 44.9912C95.6206 44.9912 96.1987 45.3879 96.1987 46.1481C96.1987 46.7883 95.6052 47.3359 94.6021 47.3359C93.9002 47.3334 93.2127 47.1361 92.6163 46.7657L92.8941 46.2871Z" fill="#710101"/>
<path d="M101.217 43.617H101.573L103.422 47.2195H102.817L102.351 46.3037H100.452L99.9852 47.2195H99.3917L101.217 43.617ZM102.098 45.8286L101.399 44.446L100.687 45.8286H102.098Z" fill="#710101"/>
<path d="M103.92 46.2871C104.409 46.615 104.981 46.7974 105.569 46.8133C106.242 46.8133 106.637 46.5021 106.637 46.1137C106.637 45.6908 106.266 45.5091 105.514 45.4913C104.409 45.4746 103.797 45.319 103.797 44.5506C103.797 43.9567 104.349 43.522 105.282 43.522C105.901 43.5214 106.507 43.7013 107.025 44.0398L106.74 44.5066C106.307 44.2115 105.798 44.0466 105.273 44.0315C104.703 44.0315 104.366 44.256 104.366 44.5506C104.366 44.8962 104.738 44.9912 105.489 44.9912C106.645 44.9912 107.225 45.3879 107.225 46.1481C107.225 46.7883 106.631 47.3359 105.627 47.3359C104.925 47.3331 104.238 47.1357 103.641 46.7657L103.92 46.2871Z" fill="#710101"/>
<path d="M108.029 46.2871C108.519 46.6156 109.092 46.7981 109.682 46.8133C110.356 46.8133 110.75 46.5021 110.75 46.1137C110.75 45.6908 110.379 45.5091 109.628 45.4913C108.523 45.4746 107.91 45.319 107.91 44.5506C107.91 43.9567 108.463 43.522 109.394 43.522C110.014 43.5215 110.62 43.7015 111.139 44.0398L110.854 44.5066C110.42 44.2116 109.911 44.0468 109.386 44.0315C108.816 44.0315 108.479 44.256 108.479 44.5506C108.479 44.8962 108.851 44.9912 109.602 44.9912C110.76 44.9912 111.338 45.3879 111.338 46.1481C111.338 46.7883 110.744 47.3359 109.74 47.3359C109.038 47.3331 108.351 47.1357 107.754 46.7657L108.029 46.2871Z" fill="#710101"/>
<path d="M112.027 45.4224C112.027 44.3534 112.907 43.522 114.228 43.522C115.549 43.522 116.438 44.3427 116.438 45.4224C116.438 46.5021 115.559 47.3323 114.228 47.3323C112.897 47.3323 112.027 46.4854 112.027 45.4224ZM115.86 45.4224C115.86 44.6539 115.221 44.0398 114.228 44.0398C113.234 44.0398 112.605 44.6456 112.605 45.4224C112.605 46.1992 113.244 46.8049 114.228 46.8049C115.23 46.8049 115.86 46.1921 115.86 45.4224Z" fill="#710101"/>
<path d="M119.219 47.3323C117.941 47.3323 117.043 46.5199 117.043 45.4319C117.043 44.3439 117.941 43.522 119.219 43.522C120.013 43.522 120.678 43.8331 121.066 44.3688L120.618 44.68C120.324 44.2738 119.823 44.0398 119.219 44.0398C118.286 44.0398 117.622 44.6337 117.622 45.4224C117.622 46.2111 118.295 46.8049 119.219 46.8049C119.514 46.8162 119.807 46.7503 120.069 46.6139C120.331 46.4775 120.553 46.2752 120.712 46.027L121.161 46.3381C120.755 46.9772 120.074 47.3323 119.219 47.3323Z" fill="#710101"/>
<path d="M122.119 43.6087H122.689V47.2278H122.119V43.6087Z" fill="#710101"/>
<path d="M125.072 43.617H125.428L127.277 47.2195H126.672L126.206 46.3037H124.307L123.84 47.2195H123.247L125.072 43.617ZM125.953 45.8286L125.254 44.446L124.542 45.8286H125.953Z" fill="#710101"/>
<path d="M131.375 45.4319C131.375 46.4676 130.663 47.2195 129.416 47.2195H127.818V43.617H129.416C130.632 43.617 131.375 44.395 131.375 45.4319ZM128.379 44.1348V46.7016H129.424C130.321 46.7016 130.796 46.1659 130.796 45.4224C130.796 44.6788 130.27 44.1348 129.424 44.1348H128.379Z" fill="#710101"/>
<path d="M133.404 43.617H133.76L135.608 47.2195H135.004L134.537 46.3037H132.638L132.172 47.2195H131.578L133.404 43.617ZM134.285 45.8286L133.585 44.446L132.873 45.8286H134.285Z" fill="#710101"/>
<path d="M136.107 46.2871C136.595 46.615 137.167 46.7974 137.755 46.8133C138.428 46.8133 138.824 46.5021 138.824 46.1137C138.824 45.6908 138.452 45.5091 137.701 45.4913C136.596 45.4746 135.983 45.319 135.983 44.5506C135.983 43.9567 136.535 43.522 137.468 43.522C138.087 43.5214 138.693 43.7013 139.212 44.0398L138.927 44.5066C138.493 44.2117 137.984 44.0468 137.46 44.0315C136.89 44.0315 136.553 44.256 136.553 44.5506C136.553 44.8962 136.924 44.9912 137.675 44.9912C138.832 44.9912 139.41 45.3879 139.41 46.1481C139.41 46.7883 138.817 47.3359 137.814 47.3359C137.112 47.3334 136.424 47.1361 135.828 46.7657L136.107 46.2871Z" fill="#710101"/>
<path d="M7.49208 42.6406H8.41437C10.7433 42.6406 13.0721 42.6406 15.401 42.6406C16.1655 42.6406 16.9109 42.6216 17.6563 42.3473C18.2225 42.1394 18.886 42.2392 19.4368 41.8864C19.7294 41.7206 20.031 41.5711 20.3401 41.4386C21.228 41.0027 21.6636 40.3851 21.6339 39.3006C21.5556 36.3194 21.5627 33.3321 21.6339 30.3496C21.6565 29.3935 21.2387 28.8246 20.5134 28.435C19.6505 27.9705 18.7555 27.5358 17.7192 27.5964C17.4926 27.5886 17.2672 27.5592 17.0462 27.5085C16.404 27.4206 15.7631 27.271 15.1173 27.2555C13.4152 27.2116 11.7095 27.2638 10.0133 27.1938C9.29037 27.1629 8.56987 26.9431 7.86004 26.7626C7.63214 26.7044 7.44222 26.4977 7.16684 26.3148C7.35913 26.0773 7.49682 25.8706 7.66775 25.6984C8.92953 24.4334 10.2008 23.1779 11.4661 21.9118C11.9255 21.4497 12.3861 20.9841 12.8122 20.4864C13.0082 20.2448 13.2589 20.0535 13.5436 19.9283C13.8283 19.8031 14.1387 19.7477 14.4491 19.7667C16.4076 19.8035 18.3661 19.7809 20.3271 19.7809C20.5538 19.7809 20.7817 19.7809 21.0084 19.769C21.3799 19.756 21.6019 19.5624 21.6019 19.1894C21.6138 18.4506 21.6019 17.7118 21.6019 16.973C21.6019 16.4979 21.285 16.4326 20.9087 16.4326C19.971 16.4326 19.0344 16.4326 18.0967 16.4326H17.0545C17.9329 15.1961 19.0107 14.4134 19.8926 13.4501C20.7746 12.4868 21.6197 11.4119 22.9503 10.8085C23.029 10.9874 23.0914 11.1731 23.1367 11.3632C23.1565 11.5899 23.1609 11.8177 23.1497 12.045C23.1561 26.9364 23.1616 41.8278 23.1664 56.7192C23.1664 56.9758 23.1806 57.2323 23.1557 57.4865C23.1094 57.9616 22.7841 58.1445 22.3996 57.8749C22.0571 57.6218 21.7374 57.3392 21.444 57.0304C17.0775 52.6491 12.7125 48.2643 8.34909 43.8759C8.0191 43.5433 7.70099 43.2013 7.37694 42.8627C7.41492 42.7879 7.45291 42.7119 7.49208 42.6406Z" fill="#710101"/>
<path d="M29.366 42.7131C28.0746 44.0315 26.7823 45.3483 25.4893 46.6636C25.3702 46.7861 25.2314 46.8876 25.0786 46.9641C24.8863 47.0579 24.6382 47.2112 24.4851 47.1541C24.3534 47.1054 24.294 46.7978 24.2477 46.5971C24.2265 46.4276 24.2237 46.2564 24.2394 46.0863C24.2394 31.1395 24.2366 16.1927 24.2311 1.24584V0.14716C24.6477 -0.1189 24.878 0.0176933 25.1 0.22674C25.7184 0.81112 26.357 1.37531 26.9576 1.97751C31.3685 6.39995 35.7754 10.8267 40.1784 15.2579C40.3909 15.4705 40.5808 15.7045 40.8621 16.0193C40.5594 16.1155 40.3873 16.2046 40.2116 16.2176C39.8721 16.2414 39.5303 16.2105 39.1896 16.2176C36.894 16.2972 34.59 16.2936 32.305 16.5051C31.2439 16.6036 30.1815 16.992 29.2188 17.5503C28.0449 18.2273 27.0538 19.0647 26.3499 20.2501C26.0516 20.7659 25.9043 21.3553 25.9249 21.951C25.9249 25.8144 25.9249 29.679 25.9249 33.5447C25.9249 36.0446 25.9289 38.5452 25.9368 41.0466C25.9368 41.188 25.9368 41.3305 25.9368 41.4731C25.9546 42.5753 25.9985 42.6062 27.0989 42.6264C27.8609 42.6406 28.623 42.6929 29.3838 42.7285L29.366 42.7131Z" fill="#710101"/>
<path d="M3.60229 29.6607C4.14119 29.9209 4.56138 30.1549 5.00413 30.3295C6.33583 30.8747 7.76517 31.1407 9.20372 31.111C11.1029 31.0587 13.014 31.0219 14.912 31.1288C16.1334 31.1977 17.3703 31.4163 18.2356 32.5149C18.8659 33.3155 18.9478 34.2324 18.9478 35.166C18.9478 35.9785 18.9573 36.8075 18.4279 37.5285C17.6919 38.531 16.6984 39.1058 15.4924 39.1225C11.7439 39.1724 7.99417 39.1391 4.24445 39.1605C4.03333 39.1677 3.82315 39.129 3.62845 39.0469C3.43375 38.9649 3.25918 38.8415 3.11681 38.6854C2.3239 37.8729 1.55235 37.0344 0.721451 36.2635C-0.165235 35.4416 -0.228146 33.7146 0.497109 32.9057C1.49775 31.7892 2.56723 30.7369 3.60229 29.6607Z" fill="#710101"/>
<path d="M37.0376 27.6083C34.7942 27.6083 32.5507 27.6083 30.3061 27.6083C29.3874 27.6083 29.347 27.562 29.347 26.6379C29.347 25.2969 29.493 23.9761 29.9773 22.7183C30.4153 21.5804 31.1869 20.7608 32.3513 20.3427C33.6188 19.8742 34.9555 19.6205 36.3064 19.5921C38.7481 19.5517 41.1921 19.5921 43.6337 19.5671C44.2118 19.5671 44.6724 19.6918 45.07 20.1325C45.5258 20.6385 46.0267 21.1041 46.5241 21.5709C47.0214 22.0377 47.3027 22.6114 47.5389 23.2159C47.8143 23.9286 47.4001 24.5367 47.0262 25.0142C46.346 25.8801 45.5377 26.6521 44.7258 27.4016C44.5169 27.5952 44.0943 27.6154 43.769 27.6178C41.5244 27.6356 39.281 27.6273 37.0376 27.6273V27.6083Z" fill="#710101"/>
<path d="M29.3827 42.7333C29.3561 42.5661 29.3383 42.3976 29.3292 42.2285C29.334 38.8473 29.3411 35.4657 29.3506 32.0838C29.3506 31.1395 29.3838 31.1027 30.2931 31.1003C33.5296 31.0932 36.7666 31.0932 40.0039 31.1003C40.2413 31.1003 40.487 31.1466 40.8846 31.187C40.6235 31.4899 40.4775 31.6835 40.3078 31.8534C36.9351 35.229 33.5605 38.6022 30.1839 41.9731C29.9239 42.2332 29.6367 42.466 29.3649 42.7131L29.3827 42.7333Z" fill="#710101"/>
</svg>
